<mxfile host="app.diagrams.net" modified="2023-10-26T14:24:45.554Z" agent="Mozilla/5.0 (Windows NT 10.0; Win64; x64; rv:109.0) Gecko/20100101 Firefox/119.0" etag="lpyjV9xSbTQAznM3_xbi" version="21.6.7" type="github">
  <diagram name="Seite-1" id="6suEPteB_oTf3wvW-ROn">
    <mxGraphModel dx="1434" dy="746" grid="1" gridSize="10" guides="1" tooltips="1" connect="1" arrows="1" fold="1" page="1" pageScale="1" pageWidth="827" pageHeight="1169" math="0" shadow="0">
      <root>
        <mxCell id="0" />
        <mxCell id="1" parent="0" />
        <mxCell id="SCl5GjR4xox2iN-F5cMH-9" style="edgeStyle=orthogonalEdgeStyle;rounded=0;orthogonalLoop=1;jettySize=auto;html=1;exitX=1;exitY=0.5;exitDx=0;exitDy=0;entryX=0;entryY=0.5;entryDx=0;entryDy=0;startArrow=classic;startFill=1;" edge="1" parent="1" source="SCl5GjR4xox2iN-F5cMH-1" target="SCl5GjR4xox2iN-F5cMH-2">
          <mxGeometry relative="1" as="geometry" />
        </mxCell>
        <mxCell id="SCl5GjR4xox2iN-F5cMH-1" value="&lt;div&gt;Front-End&lt;/div&gt;" style="rounded=0;whiteSpace=wrap;html=1;" vertex="1" parent="1">
          <mxGeometry x="90" y="160" width="120" height="60" as="geometry" />
        </mxCell>
        <mxCell id="SCl5GjR4xox2iN-F5cMH-6" style="edgeStyle=orthogonalEdgeStyle;rounded=0;orthogonalLoop=1;jettySize=auto;html=1;exitX=1;exitY=0.5;exitDx=0;exitDy=0;entryX=0;entryY=0.5;entryDx=0;entryDy=0;" edge="1" parent="1" source="SCl5GjR4xox2iN-F5cMH-2" target="SCl5GjR4xox2iN-F5cMH-3">
          <mxGeometry relative="1" as="geometry" />
        </mxCell>
        <mxCell id="SCl5GjR4xox2iN-F5cMH-7" style="edgeStyle=orthogonalEdgeStyle;rounded=0;orthogonalLoop=1;jettySize=auto;html=1;exitX=1;exitY=0.5;exitDx=0;exitDy=0;entryX=0;entryY=0.5;entryDx=0;entryDy=0;" edge="1" parent="1" source="SCl5GjR4xox2iN-F5cMH-2" target="SCl5GjR4xox2iN-F5cMH-5">
          <mxGeometry relative="1" as="geometry" />
        </mxCell>
        <mxCell id="SCl5GjR4xox2iN-F5cMH-8" style="edgeStyle=orthogonalEdgeStyle;rounded=0;orthogonalLoop=1;jettySize=auto;html=1;exitX=0.5;exitY=1;exitDx=0;exitDy=0;entryX=0.5;entryY=0;entryDx=0;entryDy=0;entryPerimeter=0;" edge="1" parent="1" source="SCl5GjR4xox2iN-F5cMH-2" target="SCl5GjR4xox2iN-F5cMH-4">
          <mxGeometry relative="1" as="geometry" />
        </mxCell>
        <mxCell id="SCl5GjR4xox2iN-F5cMH-2" value="&lt;div&gt;Backend&lt;/div&gt;" style="rounded=0;whiteSpace=wrap;html=1;" vertex="1" parent="1">
          <mxGeometry x="280" y="160" width="120" height="60" as="geometry" />
        </mxCell>
        <mxCell id="SCl5GjR4xox2iN-F5cMH-3" value="Tado-API" style="rounded=0;whiteSpace=wrap;html=1;" vertex="1" parent="1">
          <mxGeometry x="480" y="60" width="120" height="60" as="geometry" />
        </mxCell>
        <mxCell id="SCl5GjR4xox2iN-F5cMH-4" value="Database" style="shape=cylinder3;whiteSpace=wrap;html=1;boundedLbl=1;backgroundOutline=1;size=15;" vertex="1" parent="1">
          <mxGeometry x="310" y="280" width="60" height="80" as="geometry" />
        </mxCell>
        <mxCell id="SCl5GjR4xox2iN-F5cMH-5" value="Fritz-API" style="rounded=0;whiteSpace=wrap;html=1;" vertex="1" parent="1">
          <mxGeometry x="480" y="160" width="120" height="60" as="geometry" />
        </mxCell>
      </root>
    </mxGraphModel>
  </diagram>
</mxfile>
